# xmcd CD database file
#
# Track frame offsets:
#	150
#	29087
#	49866
#	64496
#	87736
#	103193
#
# Disc length: 1725 seconds
#
# Revision: 0
# Processed by: cddbd v1.5.2PL0 Copyright (c) Steve Scherf et al.
# Submitted via: CDex 1.70beta2
#
DISCID=5b06bb06
DTITLE=Craig Linder - Piano and Memories - Disc 2
DYEAR=2002
DGENRE=New Age
TTITLE0=Grandmother's Attic
TTITLE1=Coming Home
TTITLE2=On the Town
TTITLE3=Excalibur
TTITLE4=After the Storm
TTITLE5=Show Me
EXTD=YEAR: 2002
EXTT0=
EXTT1=
EXTT2=
EXTT3=
EXTT4=
EXTT5=
PLAYORDER=
